<svg width="55" height="20" viewBox="0 0 55 20" fill="none" xmlns="http://www.w3.org/2000/svg">
<path d="M7.88359 5.28361H0V7.07653H2.90935V14.7183H4.97424V7.07653H7.88359V5.28361Z" fill="#EB0A1E"/>
<path d="M13.2073 5C10.5209 5 8.34455 7.2397 8.34455 10C8.34455 12.7603 10.5209 15 13.2073 15C15.8938 15 18.0701 12.7603 18.0701 10C18.0701 7.2397 15.8938 5 13.2073 5ZM15.5915 11.5132C15.276 12.3407 14.5581 12.9584 13.6872 13.1158C13.5323 13.143 13.3717 13.1605 13.2092 13.1605C13.0467 13.1605 12.8862 13.1449 12.7313 13.1158C11.8603 12.9584 11.1424 12.3388 10.827 11.5132C10.6475 11.0451 10.5492 10.5342 10.5492 10C10.5492 9.46581 10.6494 8.95493 10.827 8.48485C11.1424 7.65929 11.8603 7.03963 12.7313 6.88228C12.8862 6.85315 13.0467 6.83761 13.2092 6.83761C13.3717 6.83761 13.5323 6.85315 13.6872 6.88228C14.5581 7.03963 15.276 7.65929 15.5915 8.48485C15.771 8.95493 15.8692 9.46387 15.8692 10C15.8692 10.5361 15.771 11.0451 15.5915 11.5132Z" fill="#EB0A1E"/>
<path d="M18.1041 5.28361H20.5355L22.8063 9.33955L25.0771 5.28361H27.5066L23.8378 11.2257V14.7183H21.7729V11.2257L18.1041 5.28361Z" fill="#EB0A1E"/>
<path d="M27.5463 10C27.5463 7.2397 29.7226 5 32.4091 5C35.0955 5 37.2718 7.2397 37.2718 10C37.2718 12.7603 35.0955 15 32.4091 15C29.7226 15 27.5463 12.7603 27.5463 10ZM32.4091 13.1624C32.5715 13.1624 32.7321 13.1469 32.887 13.1177C33.7579 12.9604 34.4758 12.3407 34.7913 11.5152C34.9708 11.047 35.069 10.5361 35.069 10C35.069 9.46387 34.9708 8.95493 34.7913 8.48679C34.4758 7.66123 33.7579 7.04157 32.887 6.88423C32.7321 6.85703 32.5715 6.84149 32.4091 6.84149C32.2466 6.84149 32.086 6.85703 31.9311 6.88423C31.0602 7.04157 30.3404 7.66123 30.0268 8.48679C29.8473 8.95493 29.7491 9.46581 29.7491 10C29.7491 10.5342 29.8492 11.0451 30.0268 11.5152C30.3423 12.3407 31.0602 12.9604 31.9311 13.1177C32.086 13.1449 32.2466 13.1624 32.4091 13.1624Z" fill="#EB0A1E"/>
<path d="M51.9508 12.634H48.0459L47.294 14.7106H44.9986L48.7147 5.27778H51.2821L55 14.7106H52.7046L51.949 12.636L51.9508 12.634ZM51.3501 10.9829L49.9993 7.25719L48.6467 10.9829H51.352H51.3501Z" fill="#EB0A1E"/>
<path d="M45.6051 5.28361H37.7215V7.07653H40.6308V14.7183H42.6957L42.6938 7.07653H45.6051V5.28361Z" fill="#EB0A1E"/>
</svg>
